<svg width="1792.0000000000002" height="1792.0000000000002" xmlns="http://www.w3.org/2000/svg">

 <g>
  <title>background</title>
  <rect fill="none" id="canvas_background" height="402" width="582" y="-1" x="-1"/>
 </g>
 <g>
  <title>Layer 1</title>
  <path fill="#7f0000" id="svg_1" d="m1152,640q0,-106 -75,-181t-181,-75t-181,75t-75,181t75,181t181,75t181,-75t75,-181zm256,0q0,109 -33,179l-364,774q-16,33 -47.5,52t-67.5,19t-67.5,-19t-46.5,-52l-365,-774q-33,-70 -33,-179q0,-212 150,-362t362,-150t362,150t150,362z"/>
 </g>
</svg>